<mxfile host="app.diagrams.net" modified="2020-12-16T01:13:17.640Z" agent="5.0 (Windows NT 10.0; Win64; x64) AppleWebKit/537.36 (KHTML, like Gecko) Chrome/87.0.4280.88 Safari/537.36" etag="u581hRIg8_PZ2BMwxIKl" version="14.0.1" type="github">
  <diagram name="Page-1" id="e7e014a7-5840-1c2e-5031-d8a46d1fe8dd">
    <mxGraphModel dx="1046" dy="494" grid="1" gridSize="10" guides="1" tooltips="1" connect="1" arrows="1" fold="1" page="1" pageScale="1" pageWidth="1169" pageHeight="826" background="#ffffff" math="0" shadow="0">
      <root>
        <mxCell id="0" />
        <mxCell id="1" parent="0" />
        <mxCell id="q4DwQ50LIF3Ok_dKfQ_P-41" value="GamePanel" style="swimlane;fontStyle=1;align=center;verticalAlign=top;childLayout=stackLayout;horizontal=1;startSize=26;horizontalStack=0;resizeParent=1;resizeParentMax=0;resizeLast=0;collapsible=1;marginBottom=0;" vertex="1" parent="1">
          <mxGeometry x="470" y="40" width="260" height="300" as="geometry">
            <mxRectangle x="240" y="130" width="100" height="26" as="alternateBounds" />
          </mxGeometry>
        </mxCell>
        <mxCell id="q4DwQ50LIF3Ok_dKfQ_P-42" value="- mouse : Mouse &#xa;- zombie : Zombie&#xa;- paladog : PalaDog&#xa;- darkdog : DarkDog&#xa;+ sohwanhp : in&#xa;+ skillmp : int&#xa;- zombielist : ArrayList&lt;Zombie&gt;&#xa;- mouselist : ArrayList&lt;Mouse&gt;&#xa;" style="text;strokeColor=none;fillColor=none;align=left;verticalAlign=top;spacingLeft=4;spacingRight=4;overflow=hidden;rotatable=0;points=[[0,0.5],[1,0.5]];portConstraint=eastwest;" vertex="1" parent="q4DwQ50LIF3Ok_dKfQ_P-41">
          <mxGeometry y="26" width="260" height="124" as="geometry" />
        </mxCell>
        <mxCell id="q4DwQ50LIF3Ok_dKfQ_P-43" value="" style="line;strokeWidth=1;fillColor=none;align=left;verticalAlign=middle;spacingTop=-1;spacingLeft=3;spacingRight=3;rotatable=0;labelPosition=right;points=[];portConstraint=eastwest;" vertex="1" parent="q4DwQ50LIF3Ok_dKfQ_P-41">
          <mxGeometry y="150" width="260" height="8" as="geometry" />
        </mxCell>
        <mxCell id="q4DwQ50LIF3Ok_dKfQ_P-44" value="+ drawImage&#xa;+ Mouse attack()&#xa;+ Zombie attack()&#xa;+ ZombieSohwan&#xa;+ MouseSohwan&#xa;+ DarkDogSohwan&#xa;+ 거리계산()" style="text;strokeColor=none;fillColor=none;align=left;verticalAlign=top;spacingLeft=4;spacingRight=4;overflow=hidden;rotatable=0;points=[[0,0.5],[1,0.5]];portConstraint=eastwest;" vertex="1" parent="q4DwQ50LIF3Ok_dKfQ_P-41">
          <mxGeometry y="158" width="260" height="142" as="geometry" />
        </mxCell>
        <mxCell id="q4DwQ50LIF3Ok_dKfQ_P-45" value="PalaDog" style="swimlane;fontStyle=1;align=center;verticalAlign=top;childLayout=stackLayout;horizontal=1;startSize=26;horizontalStack=0;resizeParent=1;resizeParentMax=0;resizeLast=0;collapsible=1;marginBottom=0;" vertex="1" parent="1">
          <mxGeometry x="240" y="460" width="160" height="110" as="geometry" />
        </mxCell>
        <mxCell id="q4DwQ50LIF3Ok_dKfQ_P-46" value="+ hp : int" style="text;strokeColor=none;fillColor=none;align=left;verticalAlign=top;spacingLeft=4;spacingRight=4;overflow=hidden;rotatable=0;points=[[0,0.5],[1,0.5]];portConstraint=eastwest;" vertex="1" parent="q4DwQ50LIF3Ok_dKfQ_P-45">
          <mxGeometry y="26" width="160" height="26" as="geometry" />
        </mxCell>
        <mxCell id="q4DwQ50LIF3Ok_dKfQ_P-47" value="" style="line;strokeWidth=1;fillColor=none;align=left;verticalAlign=middle;spacingTop=-1;spacingLeft=3;spacingRight=3;rotatable=0;labelPosition=right;points=[];portConstraint=eastwest;" vertex="1" parent="q4DwQ50LIF3Ok_dKfQ_P-45">
          <mxGeometry y="52" width="160" height="8" as="geometry" />
        </mxCell>
        <mxCell id="q4DwQ50LIF3Ok_dKfQ_P-48" value="+ right()&#xa;+ left()" style="text;strokeColor=none;fillColor=none;align=left;verticalAlign=top;spacingLeft=4;spacingRight=4;overflow=hidden;rotatable=0;points=[[0,0.5],[1,0.5]];portConstraint=eastwest;" vertex="1" parent="q4DwQ50LIF3Ok_dKfQ_P-45">
          <mxGeometry y="60" width="160" height="50" as="geometry" />
        </mxCell>
        <mxCell id="q4DwQ50LIF3Ok_dKfQ_P-49" value="DarkDog" style="swimlane;fontStyle=1;align=center;verticalAlign=top;childLayout=stackLayout;horizontal=1;startSize=26;horizontalStack=0;resizeParent=1;resizeParentMax=0;resizeLast=0;collapsible=1;marginBottom=0;" vertex="1" parent="1">
          <mxGeometry x="430" y="460" width="160" height="88" as="geometry" />
        </mxCell>
        <mxCell id="q4DwQ50LIF3Ok_dKfQ_P-50" value="+ hp : int" style="text;strokeColor=none;fillColor=none;align=left;verticalAlign=top;spacingLeft=4;spacingRight=4;overflow=hidden;rotatable=0;points=[[0,0.5],[1,0.5]];portConstraint=eastwest;" vertex="1" parent="q4DwQ50LIF3Ok_dKfQ_P-49">
          <mxGeometry y="26" width="160" height="4" as="geometry" />
        </mxCell>
        <mxCell id="q4DwQ50LIF3Ok_dKfQ_P-51" value="" style="line;strokeWidth=1;fillColor=none;align=left;verticalAlign=middle;spacingTop=-1;spacingLeft=3;spacingRight=3;rotatable=0;labelPosition=right;points=[];portConstraint=eastwest;" vertex="1" parent="q4DwQ50LIF3Ok_dKfQ_P-49">
          <mxGeometry y="30" width="160" height="58" as="geometry" />
        </mxCell>
        <mxCell id="q4DwQ50LIF3Ok_dKfQ_P-55" value="Mouse" style="swimlane;fontStyle=1;align=center;verticalAlign=top;childLayout=stackLayout;horizontal=1;startSize=26;horizontalStack=0;resizeParent=1;resizeParentMax=0;resizeLast=0;collapsible=1;marginBottom=0;" vertex="1" parent="1">
          <mxGeometry x="610" y="460" width="160" height="138" as="geometry" />
        </mxCell>
        <mxCell id="q4DwQ50LIF3Ok_dKfQ_P-56" value="+ hp : int&#xa;&#xa;+ attack : int" style="text;strokeColor=none;fillColor=none;align=left;verticalAlign=top;spacingLeft=4;spacingRight=4;overflow=hidden;rotatable=0;points=[[0,0.5],[1,0.5]];portConstraint=eastwest;" vertex="1" parent="q4DwQ50LIF3Ok_dKfQ_P-55">
          <mxGeometry y="26" width="160" height="54" as="geometry" />
        </mxCell>
        <mxCell id="q4DwQ50LIF3Ok_dKfQ_P-57" value="" style="line;strokeWidth=1;fillColor=none;align=left;verticalAlign=middle;spacingTop=-1;spacingLeft=3;spacingRight=3;rotatable=0;labelPosition=right;points=[];portConstraint=eastwest;" vertex="1" parent="q4DwQ50LIF3Ok_dKfQ_P-55">
          <mxGeometry y="80" width="160" height="8" as="geometry" />
        </mxCell>
        <mxCell id="q4DwQ50LIF3Ok_dKfQ_P-58" value="+ MoveRight()" style="text;strokeColor=none;fillColor=none;align=left;verticalAlign=top;spacingLeft=4;spacingRight=4;overflow=hidden;rotatable=0;points=[[0,0.5],[1,0.5]];portConstraint=eastwest;" vertex="1" parent="q4DwQ50LIF3Ok_dKfQ_P-55">
          <mxGeometry y="88" width="160" height="50" as="geometry" />
        </mxCell>
        <mxCell id="q4DwQ50LIF3Ok_dKfQ_P-59" value="Zombie" style="swimlane;fontStyle=1;align=center;verticalAlign=top;childLayout=stackLayout;horizontal=1;startSize=26;horizontalStack=0;resizeParent=1;resizeParentMax=0;resizeLast=0;collapsible=1;marginBottom=0;" vertex="1" parent="1">
          <mxGeometry x="790" y="460" width="160" height="138" as="geometry" />
        </mxCell>
        <mxCell id="q4DwQ50LIF3Ok_dKfQ_P-60" value="+ hp : int&#xa;&#xa;+ attack : int" style="text;strokeColor=none;fillColor=none;align=left;verticalAlign=top;spacingLeft=4;spacingRight=4;overflow=hidden;rotatable=0;points=[[0,0.5],[1,0.5]];portConstraint=eastwest;" vertex="1" parent="q4DwQ50LIF3Ok_dKfQ_P-59">
          <mxGeometry y="26" width="160" height="54" as="geometry" />
        </mxCell>
        <mxCell id="q4DwQ50LIF3Ok_dKfQ_P-61" value="" style="line;strokeWidth=1;fillColor=none;align=left;verticalAlign=middle;spacingTop=-1;spacingLeft=3;spacingRight=3;rotatable=0;labelPosition=right;points=[];portConstraint=eastwest;" vertex="1" parent="q4DwQ50LIF3Ok_dKfQ_P-59">
          <mxGeometry y="80" width="160" height="8" as="geometry" />
        </mxCell>
        <mxCell id="q4DwQ50LIF3Ok_dKfQ_P-62" value="+ MoveLeft()" style="text;strokeColor=none;fillColor=none;align=left;verticalAlign=top;spacingLeft=4;spacingRight=4;overflow=hidden;rotatable=0;points=[[0,0.5],[1,0.5]];portConstraint=eastwest;" vertex="1" parent="q4DwQ50LIF3Ok_dKfQ_P-59">
          <mxGeometry y="88" width="160" height="50" as="geometry" />
        </mxCell>
        <mxCell id="q4DwQ50LIF3Ok_dKfQ_P-65" value="" style="endArrow=diamondThin;endFill=1;endSize=24;html=1;fontColor=#67AB9F;exitX=0.5;exitY=0;exitDx=0;exitDy=0;" edge="1" parent="1" source="q4DwQ50LIF3Ok_dKfQ_P-45" target="q4DwQ50LIF3Ok_dKfQ_P-44">
          <mxGeometry width="160" relative="1" as="geometry">
            <mxPoint x="400" y="290" as="sourcePoint" />
            <mxPoint x="560" y="290" as="targetPoint" />
          </mxGeometry>
        </mxCell>
        <mxCell id="q4DwQ50LIF3Ok_dKfQ_P-66" value="" style="endArrow=diamondThin;endFill=1;endSize=24;html=1;fontColor=#67AB9F;exitX=0.5;exitY=0;exitDx=0;exitDy=0;" edge="1" parent="1" source="q4DwQ50LIF3Ok_dKfQ_P-49" target="q4DwQ50LIF3Ok_dKfQ_P-44">
          <mxGeometry width="160" relative="1" as="geometry">
            <mxPoint x="410" y="460" as="sourcePoint" />
            <mxPoint x="563.1200000000001" y="370.7099999999999" as="targetPoint" />
          </mxGeometry>
        </mxCell>
        <mxCell id="q4DwQ50LIF3Ok_dKfQ_P-67" value="" style="endArrow=diamondThin;endFill=1;endSize=24;html=1;fontColor=#67AB9F;exitX=0.5;exitY=0;exitDx=0;exitDy=0;" edge="1" parent="1" source="q4DwQ50LIF3Ok_dKfQ_P-55" target="q4DwQ50LIF3Ok_dKfQ_P-44">
          <mxGeometry width="160" relative="1" as="geometry">
            <mxPoint x="576.88" y="469.29" as="sourcePoint" />
            <mxPoint x="730.0000000000001" y="379.99999999999994" as="targetPoint" />
          </mxGeometry>
        </mxCell>
        <mxCell id="q4DwQ50LIF3Ok_dKfQ_P-68" value="" style="endArrow=diamondThin;endFill=1;endSize=24;html=1;fontColor=#67AB9F;exitX=0.5;exitY=0;exitDx=0;exitDy=0;" edge="1" parent="1" source="q4DwQ50LIF3Ok_dKfQ_P-59" target="q4DwQ50LIF3Ok_dKfQ_P-44">
          <mxGeometry width="160" relative="1" as="geometry">
            <mxPoint x="780" y="457.29" as="sourcePoint" />
            <mxPoint x="731" y="370" as="targetPoint" />
          </mxGeometry>
        </mxCell>
      </root>
    </mxGraphModel>
  </diagram>
</mxfile>
